<svg width="24" height="24" viewBox="0 0 24 24" fill="none" xmlns="http://www.w3.org/2000/svg">
  <rect width="24" height="24" rx="4" fill="#00c853"/>
  <path d="M12 8.5C10.07 8.5 8.5 10.07 8.5 12C8.5 13.93 10.07 15.5 12 15.5C13.93 15.5 15.5 13.93 15.5 12C15.5 10.07 13.93 8.5 12 8.5ZM12 14C10.9 14 10 13.1 10 12C10 10.9 10.9 10 12 10C13.1 10 14 10.9 14 12C14 13.1 13.1 14 12 14ZM20 5H16.83L15.59 3.59C15.21 3.21 14.7 3 14.17 3H9.83C9.3 3 8.79 3.21 8.41 3.59L7.17 5H4C2.9 5 2 5.9 2 7V19C2 20.1 2.9 21 4 21H20C21.1 21 22 20.1 22 19V7C22 5.9 21.1 5 20 5ZM20 19H4V7H7.17L8.41 5.59C8.79 5.21 9.3 5 9.83 5H14.17C14.7 5 15.21 5.21 15.59 5.59L16.83 7H20V19Z" fill="white"/>
</svg>
